<?xml version="1.0" standalone="no"?>
<!DOCTYPE svg PUBLIC "-//W3C//DTD SVG 20010904//EN"
 "http://www.w3.org/TR/2001/REC-SVG-20010904/DTD/svg10.dtd">
<svg version="1.0" xmlns="http://www.w3.org/2000/svg"
 width="700.000000pt" height="700.000000pt" viewBox="0 0 700.000000 700.000000"
 preserveAspectRatio="xMidYMid meet">
<metadata>
Created by potrace 1.14, written by Peter Selinger 2001-2017
</metadata>
<g transform="translate(0.000000,700.000000) scale(0.100000,-0.100000)"
fill="#000000" stroke="none">
<path d="M3242 6989 c-476 -42 -892 -159 -1307 -369 -223 -112 -349 -189 -527
-322 -776 -581 -1258 -1407 -1384 -2373 -22 -165 -25 -618 -6 -780 84 -700
333 -1298 769 -1845 86 -108 321 -349 438 -450 664 -571 1510 -873 2370 -847
531 16 1013 139 1480 377 1219 620 1961 1862 1922 3215 -16 522 -128 977 -357
1440 -191 386 -404 680 -706 975 -265 258 -551 462 -872 623 -370 184 -716
290 -1122 342 -148 20 -550 28 -698 14z m593 -484 c805 -94 1524 -492 2032
-1125 667 -831 840 -1933 462 -2945 -149 -400 -382 -759 -693 -1071 -243 -243
-492 -422 -791 -569 -319 -157 -640 -253 -995 -297 -159 -20 -594 -16 -745 6
-687 100 -1265 386 -1740 861 -739 738 -1039 1781 -810 2810 207 928 872 1725
1755 2103 272 117 595 201 880 231 145 14 503 12 645 -4z"/>
<path d="M2270 4509 c-254 -17 -466 -114 -646 -293 -131 -130 -215 -276 -266
-464 -18 -63 -21 -107 -22 -242 -1 -143 2 -177 23 -254 103 -393 370 -652 771
-748 75 -18 126 -21 448 -25 364 -5 364 -5 360 16 -2 12 -90 100 -206 206
l-204 185 -122 0 c-210 0 -344 49 -467 170 -138 136 -213 341 -188 514 27 190
166 389 330 470 128 63 164 66 777 67 301 1 558 4 571 8 27 7 25 3 84 131 24
52 69 128 100 168 32 40 57 76 57 81 0 5 -7 12 -16 15 -23 9 -1248 5 -1384 -5z"/>
<path d="M4245 4510 c-127 -10 -182 -23 -275 -68 -141 -68 -255 -210 -295
-367 -19 -76 -19 -231 0 -314 37 -156 155 -306 295 -374 151 -74 115 -71 909
-75 724 -3 771 -1 771 33 0 6 -14 41 -32 76 -43 88 -161 205 -248 247 -129 63
-140 64 -650 69 -515 4 -524 6 -579 68 -84 97 -33 246 95 275 21 5 289 10 594
10 420 0 561 3 579 13 16 8 29 30 41 67 24 78 69 162 134 254 31 43 54 81 51
85 -10 9 -1272 10 -1390 1z"/>
<path d="M2240 3685 c0 -3 11 -27 24 -53 56 -110 164 -225 256 -272 68 -35
153 -51 298 -57 l142 -6 0 -187 0 -188 202 -221 202 -222 905 4 c689 3 918 6
956 16 102 26 213 89 285 160 64 65 120 156 136 224 l6 27 -1141 0 -1141 0 0
390 0 390 -565 0 c-311 0 -565 -2 -565 -5z"/>
</g>
</svg>
